<svg height="512" viewBox="0 0 58 59" width="512" xmlns="http://www.w3.org/2000/svg"><g id="005---Apitherapy" fill="none"><path id="Shape" d="m8 5v8l8 5 8-5v-8l-8-5z" fill="#f3d55b"/><path id="Shape" d="m16 18v8l-8 5-8-5v-8l8-5z" fill="#f0c419"/><path id="Shape" d="m48 18v8l-8 5-8-5v-8l8-5z" fill="#f3d55b"/><path id="Shape" d="m24 31v8l-8 5-8-5v-8l8-5z" fill="#f3d55b"/><path id="Shape" d="m16 44v8l-8 5-8-5v-8l8-5z" fill="#f0c419"/><path id="Shape" d="m32 44v8l-8 5-8-5v-8l8-5z" fill="#f29c1f"/><path id="Shape" d="m32 18v8l-8 5-8-5v-8l8-5z" fill="#f29c1f"/><path id="Shape" d="m24 5v8l8 5 8-5v-8l-8-5z" fill="#f0c419"/><g fill="#2c3e50"><path id="Shape" d="m36.371 24.75c-.3810491.0018904-.7300547-.212942-.9-.554l-1.37-2.75c-.1626254-.3201604-.1411014-.7029367.0563913-1.0028472.1974927-.2999106.5406288-.4709036.8989927-.4479897.3583639.0229138.676928.236216.834616.5588369l1.37 2.75c.1543843.309818.137564.6774434-.0444668.9718691-.1820308.2944256-.5033807.4737734-.8495332.4741309z"/><path id="Shape" d="m41.629 24.75c-.3461525-.0003575-.6675024-.1797053-.8495332-.4741309-.1820308-.2944257-.1988511-.6620511-.0444668-.9718691l1.37-2.75c.2487584-.4897304.8459605-.687141 1.3375873-.4421516.4916267.2449894.6936186.8406576.4524127 1.3341516l-1.37 2.75c-.1693056.3397629-.5163909.554367-.896.554z"/><path id="Shape" d="m39 59c-.5522847 0-1-.4477153-1-1v-2c0-.5522847.4477153-1 1-1s1 .4477153 1 1v2c0 .5522847-.4477153 1-1 1z"/></g><path id="Shape" d="m45.31 38-1.31-7h-10l-1.34 7c-.4141232 1.8047925-.6353644 3.648469-.66 5.5 0 5.237 2.3 12.5 7 12.5 4.741 0 7-7.324 7-12.5-.0020582-1.8547886-.2338222-3.7021827-.69-5.5z" fill="#f0c419"/><path id="Shape" d="m45.31 38h-12.65l1.34-7h10z" fill="#f0c419"/><path id="Shape" d="m45.95 42h-13.9c.0552156-.8253492.1587262-1.6467557.31-2.46l.3-1.54h12.65l.33 1.54c.1512738.8132443.2547844 1.6346508.31 2.46z" fill="#35495e"/><path id="Shape" d="m46 43.5c-.000368.835282-.0471066 1.6698994-.14 2.5h-13.72c-.0928934-.8301006-.139632-1.664718-.14-2.5 0-.51.02-1.01.05-1.5h13.9c.03.49.05.99.05 1.5z" fill="#f0c419"/><path id="Shape" d="m45.86 46c-.1441546 1.361831-.4393016 2.7034086-.88 4h-11.96c-.4406984-1.2965914-.7358454-2.638169-.88-4z" fill="#35495e"/><path id="Shape" d="m44.98 50c-1.23 3.6-3.45 6-5.98 6s-4.75-2.4-5.98-6z" fill="#f0c419"/><path id="Shape" d="m44 30v-2c0-2.7614237-2.2385763-5-5-5s-5 2.2385763-5 5v4z" fill="#35495e"/><path id="Shape" d="m20 35c0 2.761 5.029 5 10 5s9-6.239 9-9c0-1-4.029-1-9-1s-10 2.239-10 5z" fill="#f5efca"/><path id="Shape" d="m58 35c0 2.76-5.03 5-10 5-.8082816-.0066944-1.6083727-.1626443-2.36-.46-.9191799-.3768768-1.7730406-.8966181-2.53-1.54-1.2733851-1.0765188-2.3290311-2.3867418-3.11-3.86-.5709328-.9555839-.9131799-2.0302401-1-3.14 0-.17.11-.3.32-.42h.01c.6449311-.2654467 1.332832-.4111597 2.03-.43.74-.07 1.64-.11 2.64-.12 1.21-.03 2.57-.03 4-.03 4.97 0 10 2.24 10 5z" fill="#f5efca"/></g></svg>