<svg height="512" viewBox="0 0 60 60" width="512" xmlns="http://www.w3.org/2000/svg"><g id="005---Apitherapy" fill="none"><g id="Icons" transform="translate(1 1)"><path id="Shape" d="m8 5v8l8 5 8-5v-8l-8-5z" fill="#ffeb3a"/><path id="Shape" d="m16 18v8l-8 5-8-5v-8l8-5z" fill="#ffdc00"/><path id="Shape" d="m48 18v8l-8 5-8-5v-8l8-5z" fill="#fdd834"/><path id="Shape" d="m45 20v7.88l-5 3.12-8-5v-7.87l5-3.13z" fill="#ffeb3a"/><path id="Shape" d="m24 31v8l-8 5-8-5v-8l8-5z" fill="#ffeb3a"/><path id="Shape" d="m16 44v8l-8 5-8-5v-8l8-5z" fill="#ffdc00"/><path id="Shape" d="m32 44v8l-8 5-8-5v-8l8-5z" fill="#ff9801"/><path id="Shape" d="m32 18v8l-8 5-8-5v-8l8-5z" fill="#ff9801"/><path id="Shape" d="m40 5v8l-8 5-8-5v-8l8-5z" fill="#fec108"/><path id="Shape" d="m37 7v7.88l-5 3.12-8-5v-7.87l5-3.13z" fill="#ffdc00"/><path id="Shape" d="m45.95 42c-.126-1.785-.177-1.768-1.95-11h-10c-1.613 8.4-2 9.715-2 12.5-.0171589 2.2078239.3274018 4.4035534 1.02 6.5 2.728 7.985 9.224 8.007 11.96 0 .8410513-2.5780914 1.170551-5.2956144.97-8z" fill="#f0c419"/><path id="Shape" d="m43.11 38h-8.22c2.47-2.07 4.11-5.24 4.11-7 .0868201 1.1097599.4290672 2.1844161 1 3.14.7809689 1.4732582 1.8366149 2.7834812 3.11 3.86z" fill="#ffdc00"/><path id="Shape" d="m45.95 42h-13.9c.0552156-.8253492.1587262-1.6467557.31-2.46.9211071-.3730533 1.7755517-.8931501 2.53-1.54h8.22c.7569594.6433819 1.6108201 1.1631232 2.53 1.54.1512738.8132443.2547844 1.6346508.31 2.46z" fill="#37474f"/><path id="Shape" d="m45.86 46h-13.72c-.149363-1.3279722-.1794834-2.6666538-.09-4h13.9c.0896068 1.3333435.0594863 2.6720361-.09 4z" fill="#fec108"/><path id="Shape" d="m45.86 46c-.1441546 1.361831-.4393016 2.7034086-.88 4h-11.96c-.4406984-1.2965914-.7358454-2.638169-.88-4z" fill="#37474f"/><path id="Shape" d="m44.98 50c-2.721 7.964-9.206 8.036-11.96 0z" fill="#fec108"/><path id="Shape" d="m32.05 42h10.9c.0892425 1.3333516.0591227 2.6720116-.09 4h-10.72z" fill="#ffdc00"/><path id="Shape" d="m41.98 50c-.98 2.86-2.58 4.97-4.48 5.7-1.9-.73-3.5-2.84-4.48-5.7z" fill="#ffdc00"/><path id="Shape" d="m44 28v2.03c-.954.01-5 .027-5 .97 0-.71-2.04-.92-5-.97v-2.03c0-2.7614237 2.2385763-5 5-5s5 2.2385763 5 5z" fill="#37474f"/><path id="Shape" d="m20 35c0 2.761 5.029 5 10 5s9-6.239 9-9c0-1-4.029-1-9-1s-10 2.239-10 5z" fill="#f5f5f5"/><path id="Shape" d="m58 35c0 3.5-7.685 5.556-11.11 4.89-2.841-.463-5.532-3.169-6.89-5.75-.5709328-.9555839-.9131799-2.0302401-1-3.14 0-.638 1.709-.8 2.36-.85 1.646-.156 4.831-.15 6.64-.15 4.97 0 10 2.24 10 5z" fill="#cfd8dc"/><path id="Shape" d="m55 35c0 2.41-3.83 4.42-8.11 4.89-4-.651-7.89-5.969-7.89-8.89 0-1.061 5.084-.99 6.28-.99 4.88.07 9.72 2.28 9.72 4.99z" fill="#f5f5f5"/></g><g id="Layer_2" fill="#000"><path id="Shape" d="m.47 53.848c8.696 5.44 8.122 5.152 8.53 5.152s-.1.239 8-4.821c8.117 5.073 7.6 4.821 8 4.821s0 .177 6.54-3.912c.469442-.2929871.612487-.9110579.3194999-1.3805-.292987-.469442-.9110579-.612487-1.3804999-.3195l-5.479 3.433-7-4.375v-6.892l3.651-2.286c.469442-.2932632.6122632-.911558.319-1.381s-.911558-.6122632-1.381-.319l-3.589 2.252-7-4.374v-6.892l7-4.374c3.9 2.443 3.643 2.316 3.922 2.373.4689316.0873966.9343088-.1685789 1.1115902-.6114178.1772815-.4428388.0171067-.9492413-.3825902-1.2095822l-3.651-2.286v-6.892l7-4.375 7 4.375v1.446c0 .5522847.4477153 1 1 1s1-.4477153 1-1v-1.446l7-4.375 7 4.375v7.446c0 .5522847.4477153 1 1 1s1-.4477153 1-1v-8c.0000008-.3447904-.1776185-.6652611-.47-.848l-7.53-4.706v-7.446c.0000008-.34479043-.1776185-.66526107-.47-.848l-8-5c-.3242708-.20266981-.7357292-.20266981-1.06 0l-7.47 4.669-7.47-4.669c-.3242708-.20266981-.7357292-.20266981-1.06 0l-8 5c-.29238147.18273893-.47000081.50320957-.47.848v7.446l-7.53 4.706c-.29238147.1827389-.47000081.5032096-.47.848v8c-.00000081.3447904.17761853.6652611.47.848l7.53 4.706v6.892l-7.53 4.706c-.29238147.1827389-.47000081.5032096-.47.848v8c-.00000081.3447904.17761853.6652611.47.848zm25.53-47.294 7-4.375 7 4.375v6.892l-7 4.375-7-4.375zm-16 0 7-4.375 7 4.375v6.892l-7 4.375-7-4.375zm-8 19.892v-6.892l7-4.375 7 4.375v6.892l-7 4.375zm0 19.108 7-4.375 7 4.375v6.892l-7 4.375-7-4.375z"/><path id="Shape" d="m46 30.012v-1.012c-.0001797-1.7518097-.7676023-3.4156551-2.1-4.553l1-2c.2412059-.493494.039214-1.0891622-.4524127-1.3341516-.4916268-.2449894-1.0888289-.0475788-1.3375873.4421516l-.927 1.861c-1.3993259-.5531106-2.9566741-.5531106-4.356 0l-.927-1.862c-.157688-.3226209-.4762521-.5359231-.834616-.5588369-.3583639-.0229139-.7015.1480791-.8989927.4479897-.1974927.2999105-.2190167.6826868-.0563913 1.0028472l1 2c-1.3363877 1.1356891-2.1076168 2.800228-2.11 4.554v1.009c-.91-.009-1.9-.009-3-.009-5.312 0-11 2.411-11 6 0 4.308 8.125 6.579 12.167 5.891-.038.331-.062.661-.094.993-.0096808.0382399-.0173579.0769593-.023.116 0 .026.013.048.015.074-.03.475-.065.95-.065 1.426 0 7 3 12.581 7 13.389v1.111c0 .5522847.4477153 1 1 1s1-.4477153 1-1v-1.111c4-.808 7-6.393 7-13.389 0-.476-.035-.951-.065-1.426 0-.026.015-.048.015-.074 0-.042-.02-.077-.023-.117-.032-.33-.055-.658-.093-.987 4.095.681 12.166-1.596 12.166-5.896 0-3.589-5.688-6-11-6-1.05 0-2.061 0-3 .012zm-10-1.012c0-2.209139 1.790861-4 4-4s4 1.790861 4 4v1.052c-1.3532201-.022481-2.7013032.1719832-3.993.576-1.2930839-.4191962-2.6481418-.6149981-4.007-.579zm5.727 9h-3.457c.6736963-.8061467 1.2559209-1.6845144 1.736-2.619.468581.9376968 1.0462471 1.8167831 1.721 2.619zm-10.727 2c-4.847 0-9-2.2-9-4s4.153-4 9-4c2 0 6.731-.036 7.973.358-.342 2.405-3.827 7.642-7.973 7.642zm14.241 10h-1.241c-.5522847 0-1 .4477153-1 1s.4477153 1 1 1h.5c-2.433 5.33-6.566 5.328-9 0h4.5c.5522847 0 1-.4477153 1-1s-.4477153-1-1-1h-5.241c-.1903886-.6575983-.3439603-1.3253014-.46-2h11.401c-.1157107.6746792-.2689485 1.342382-.459 2zm.7-4h-11.881c-.0656006-.664616-.0779733-1.3334123-.037-2h.977c.5522847 0 1-.4477153 1-1s-.4477153-1-1-1h-.832c.032-.265.067-.53.109-.793.6876696-.3306399 1.3371846-.7353713 1.937-1.207h7.555c.6056562.4785529 1.2619019.8893351 1.957 1.225.04.257.075.516.106.775h-6.832c-.5522847 0-1 .4477153-1 1s.4477153 1 1 1h6.977c.0437111.6665261.0313342 1.3355467-.037 2zm12.059-10c0 2.487-7.435 4.99-10.992 3.61-2.9713691-1.401203-5.1630793-4.0544996-5.978-7.237 1.437-.433 5.77-.359 7.97-.373 4.847 0 9 2.2 9 4z"/></g></g></svg>