<?xml version="1.0" standalone="no"?>
<!DOCTYPE svg PUBLIC "-//W3C//DTD SVG 20010904//EN"
 "http://www.w3.org/TR/2001/REC-SVG-20010904/DTD/svg10.dtd">
<svg version="1.0" xmlns="http://www.w3.org/2000/svg"
 width="720.000000pt" height="720.000000pt" viewBox="0 0 720.000000 720.000000"
 preserveAspectRatio="xMidYMid meet">
<metadata>
Created by potrace 1.11, written by Peter Selinger 2001-2013
</metadata>
<g transform="translate(0.000000,720.000000) scale(0.100000,-0.100000)"
fill="#000000" stroke="none">
<path d="M4409 7083 c-575 -291 -843 -503 -968 -766 -34 -73 -58 -148 -53
-169 5 -22 -10 -3 -23 28 -23 56 -110 168 -178 230 -93 85 -284 207 -457 293
-166 82 -192 94 -370 166 -63 26 -124 51 -135 56 -157 66 -224 80 -275 59 -54
-22 -67 -80 -26 -119 20 -19 81 -44 138 -56 75 -16 333 -97 448 -140 129 -48
249 -106 405 -194 100 -57 219 -158 303 -257 37 -44 107 -183 115 -231 6 -31
5 -31 -45 -44 -262 -62 -507 -259 -630 -504 -30 -58 -76 -183 -82 -223 -3 -15
-8 -43 -12 -62 -12 -65 -11 -219 2 -297 15 -93 56 -225 84 -270 l20 -33 -103
-48 c-402 -190 -820 -540 -1153 -968 -140 -179 -291 -413 -394 -609 -23 -44
-47 -86 -53 -94 -7 -8 -11 -16 -9 -18 1 -2 -9 -29 -24 -61 -39 -84 -94 -215
-94 -224 0 -3 -5 -19 -12 -35 -6 -15 -12 -32 -14 -38 -1 -5 -12 -39 -24 -75
-25 -79 -66 -238 -75 -300 -4 -25 -9 -54 -11 -65 -25 -127 -25 -417 0 -540 26
-129 107 -318 160 -371 8 -8 23 -24 33 -36 71 -89 244 -189 368 -214 94 -19
242 -24 340 -12 186 23 431 114 648 241 116 68 124 73 212 135 41 29 75 48 75
44 0 -17 134 -209 200 -287 67 -78 194 -200 228 -219 9 -5 19 -12 22 -16 8
-12 111 -75 167 -104 55 -27 191 -76 233 -82 84 -14 75 -1 167 -239 46 -121
92 -242 101 -269 l16 -49 23 74 c12 40 50 169 84 285 l62 212 41 12 c60 18
187 83 269 137 94 62 287 255 364 363 68 96 154 241 201 343 l32 67 78 -48
c92 -58 226 -130 302 -161 30 -13 69 -29 85 -36 82 -36 220 -74 330 -91 22 -3
51 -8 65 -10 38 -6 193 -5 236 1 178 25 327 97 440 213 74 76 73 74 117 152
80 145 117 322 112 547 -1 78 -5 145 -8 150 -3 4 -8 37 -12 73 -4 36 -11 73
-16 82 -6 10 -8 18 -5 18 2 0 -7 42 -20 93 -70 263 -185 520 -350 783 -72 114
-238 340 -320 434 -72 82 -322 330 -379 375 -27 22 -52 43 -55 46 -10 12 -166
127 -209 154 -9 6 -18 12 -21 15 -34 35 -410 230 -444 230 -8 0 -17 4 -20 9
-3 5 -16 11 -28 14 -13 3 -67 18 -120 34 l-97 29 20 44 c47 104 63 197 63 355
0 83 -3 164 -7 180 -49 211 -129 364 -259 496 -90 92 -133 124 -268 197 -109
59 -285 100 -426 98 l-86 -1 6 58 c21 201 149 403 356 562 74 56 158 115 166
115 3 0 18 9 33 19 82 59 379 192 592 266 134 46 165 65 174 104 7 34 -15 85
-42 96 -64 26 -82 21 -324 -102z m168 -2649 c123 -40 440 -199 451 -226 2 -4
8 -8 14 -8 9 0 213 -143 228 -160 3 -3 32 -27 65 -55 96 -79 303 -287 391
-393 106 -127 224 -286 224 -300 0 -7 4 -12 8 -12 5 0 19 -18 31 -41 13 -22
38 -63 57 -92 48 -73 175 -326 214 -427 18 -47 36 -94 41 -105 29 -74 84 -297
94 -384 4 -30 9 -63 11 -75 8 -44 5 -244 -6 -318 -65 -454 -437 -679 -930
-562 -198 47 -424 149 -626 280 l-50 34 47 142 c40 120 87 305 105 408 24 137
39 262 50 405 7 100 7 378 0 465 -3 36 -8 94 -11 130 -8 89 -20 184 -31 245
-2 11 -9 47 -15 80 -5 33 -17 87 -26 120 -8 33 -16 65 -17 70 -37 167 -149
433 -242 578 -24 37 -44 70 -44 72 0 3 -6 13 -14 22 -81 101 -105 133 -101
133 2 0 40 -11 82 -26z m-1972 -90 c-181 -252 -312 -583 -378 -954 -43 -240
-52 -350 -52 -620 0 -212 7 -315 29 -485 31 -236 120 -569 196 -740 84 -187
81 -177 63 -191 -48 -37 -218 -147 -298 -192 -121 -68 -325 -156 -390 -168 -5
-1 -30 -7 -55 -14 -116 -31 -265 -42 -372 -26 -180 26 -345 131 -434 277 -37
61 -88 196 -98 262 -36 226 -23 467 38 697 3 8 9 35 16 60 70 284 239 641 453
965 53 79 231 321 246 335 3 3 35 39 70 80 131 152 345 355 496 470 116 88
122 92 225 157 75 48 282 161 297 163 1 0 -22 -34 -52 -76z"/>
</g>
</svg>
