<?xml version="1.0" encoding="iso-8859-1"?>
<!-- Generator: Adobe Illustrator 19.0.0, SVG Export Plug-In . SVG Version: 6.00 Build 0)  -->
<svg version="1.1" id="Capa_1" xmlns="http://www.w3.org/2000/svg" xmlns:xlink="http://www.w3.org/1999/xlink" x="0px" y="0px"
	 viewBox="0 0 464 464" style="enable-background:new 0 0 464 464;" xml:space="preserve">
<path style="fill:#502601;" d="M368,80v32H0V80h224l48-48l24,24l-24,24H368z"/>
<path style="fill:#008100;" d="M368,0l7.032,7.032C385.896,17.898,392,32.634,392,48c0,15.366-6.104,30.102-16.968,40.968L368,96
	l-7.032-7.032C350.104,78.102,344,63.366,344,48c0-15.366,6.104-30.102,16.968-40.968L368,0z"/>
<path style="fill:#33BC00;" d="M464,96l-7.032,7.032C446.102,113.896,431.366,120,416,120c-15.366,0-30.102-6.104-40.968-16.968
	L368,96l7.032-7.032C385.898,78.104,400.634,72,416,72c15.366,0,30.102,6.104,40.968,16.968L464,96z"/>
<path style="fill:#763A02;" d="M152,112h32v48h-32V112z"/>
<path style="fill:#FF8800;" d="M72,192h200c13.255,0,24,10.745,24,24l0,0c0,13.255-10.745,24-24,24H72c-13.255,0-24-10.745-24-24
	l0,0C48,202.745,58.745,192,72,192z"/>
<path style="fill:#FFA900;" d="M40,240h264c13.255,0,24,10.745,24,24l0,0c0,13.255-10.745,24-24,24H40c-13.255,0-24-10.745-24-24
	l0,0C16,250.745,26.745,240,40,240z"/>
<path style="fill:#FF8800;" d="M72,384h200c13.255,0,24,10.745,24,24l0,0c0,13.255-10.745,24-24,24H72c-13.255,0-24-10.745-24-24
	l0,0C48,394.745,58.745,384,72,384z"/>
<path style="fill:#FFA900;" d="M40,336h264c13.255,0,24,10.745,24,24l0,0c0,13.255-10.745,24-24,24H40c-13.255,0-24-10.745-24-24
	l0,0C16,346.745,26.745,336,40,336z"/>
<path style="fill:#FEBD33;" d="M24,288h296c13.255,0,24,10.745,24,24l0,0c0,13.255-10.745,24-24,24H24c-13.255,0-24-10.745-24-24
	l0,0C0,298.745,10.745,288,24,288z"/>
<g>
	<path style="fill:#E47700;" d="M112,160h120c8.837,0,16,7.163,16,16l0,0c0,8.837-7.163,16-16,16H112c-8.837,0-16-7.163-16-16l0,0
		C96,167.163,103.163,160,112,160z"/>
	<path style="fill:#E47700;" d="M112,432h120c8.837,0,16,7.163,16,16l0,0c0,8.837-7.163,16-16,16H112c-8.837,0-16-7.163-16-16l0,0
		C96,439.163,103.163,432,112,432z"/>
</g>
<path style="fill:#763A02;" d="M136,384h64v-32c0-17.673-14.327-32-32-32s-32,14.327-32,32V384z"/>
<g>
	<path style="fill:#502601;" d="M368,176h-32v-16h24v-24h16v32C376,172.418,372.418,176,368,176z"/>
	<path style="fill:#502601;" d="M426.346,237.677l11.314-11.314l24.002,24.002l-11.314,11.314L426.346,237.677z"/>
</g>
<path style="fill:#763A02;" d="M400,168c-8.837-8.837-23.163-8.837-32,0s-8.837,23.163,0,32l8,8l32-32L400,168z"/>
<path style="fill:#FEBD33;" d="M376.006,208.015l32.001-32.001l28.002,28.002l-32.001,32.001L376.006,208.015z"/>
<path style="fill:#763A02;" d="M440,208l-4-4l-32,32l4,4c8.837,8.837,23.163,8.837,32,0C448.837,231.163,448.837,216.837,440,208z"
	/>
<path style="fill:#81D1FE;" d="M392,192l27.312-27.312c3-3.001,7.069-4.687,11.312-4.688H432c8.837,0,16,7.163,16,16
	s-7.163,16-16,16H392z"/>
<path style="fill:#08B7FC;" d="M392,192l-27.312,27.312c-3.001,3-4.687,7.069-4.688,11.312V232c0,8.837,7.163,16,16,16
	s16-7.163,16-16V192z"/>
<g>
</g>
<g>
</g>
<g>
</g>
<g>
</g>
<g>
</g>
<g>
</g>
<g>
</g>
<g>
</g>
<g>
</g>
<g>
</g>
<g>
</g>
<g>
</g>
<g>
</g>
<g>
</g>
<g>
</g>
</svg>
