<?xml version="1.0" encoding="iso-8859-1"?>
<!-- Generator: Adobe Illustrator 19.0.0, SVG Export Plug-In . SVG Version: 6.00 Build 0)  -->
<svg version="1.1" id="Layer_1" xmlns="http://www.w3.org/2000/svg" xmlns:xlink="http://www.w3.org/1999/xlink" x="0px" y="0px"
	 viewBox="0 0 512 512" style="enable-background:new 0 0 512 512;" xml:space="preserve">
<g>
	<g>
		<rect x="93.867" y="290.665" width="68.267" height="17.067"/>
	</g>
</g>
<g>
	<g>
		<rect x="358.4" y="171.198" width="68.267" height="17.067"/>
	</g>
</g>
<g>
	<g>
		<path d="M139.093,51.731l7.68-7.68c3.413-3.413,3.413-8.533,0-11.947s-8.533-3.413-11.947,0l-7.68,7.68
			c-0.853-2.56-2.56-5.12-4.267-7.68c-5.12-5.12-12.8-6.827-21.333-5.973c-7.68,1.707-15.36,5.973-21.333,11.947
			c-5.973,5.973-10.24,13.653-11.093,21.333c-1.707,8.533,0,16.213,5.973,21.333c1.707,1.707,4.267,3.413,6.827,4.267l-7.68,7.68
			c-3.413,3.413-3.413,8.533,0,11.947c1.707,1.707,4.267,2.56,5.973,2.56c2.56,0,4.267-0.853,5.973-2.56l7.68-7.68
			c0.853,2.56,2.56,5.12,4.267,7.68c4.267,4.267,9.387,5.973,15.36,5.973c8.533,0,18.773-4.267,26.453-11.947
			C170.667,66.238,142.507,52.585,139.093,51.731z M92.16,68.798c-2.56,0.853-5.12,0-5.973-0.853
			c-0.853-0.853-0.853-2.56-0.853-5.973c0.853-4.267,3.413-8.533,6.827-11.947c3.413-3.413,7.68-5.973,11.947-6.827
			c0.853,0,1.707,0,2.56,0c1.707,0,2.56,0,3.413,0.853c0.853,0.853,1.707,3.413,0.853,5.973c-0.853,4.267-3.413,8.533-6.827,11.947
			C100.693,65.385,96.427,67.945,92.16,68.798z M128.853,85.865c-7.68,7.68-15.36,8.533-17.92,5.973s-1.707-11.093,5.973-17.92
			c5.12-4.267,10.24-6.827,14.507-6.827c1.707,0,2.56,0,3.413,0.853C137.387,70.505,136.533,79.038,128.853,85.865z"/>
	</g>
</g>
<g>
	<g>
		<path d="M413.013,461.331c2.56-0.853,5.12-2.56,7.68-4.267c10.24-10.24,7.68-29.013-5.973-42.667
			c-5.973-5.973-13.653-10.24-20.48-11.947c-8.533-1.707-16.213,0-21.333,5.973c-1.707,2.56-3.413,5.12-4.267,7.68l-7.68-7.68
			c-3.413-3.413-8.533-3.413-11.947,0c-3.413,3.413-3.413,8.533,0,11.947l7.68,7.68c-2.56,0.853-5.12,2.56-7.68,4.267
			c-5.12,5.12-7.68,12.8-5.973,21.333c1.707,7.68,5.973,14.507,11.947,20.48c7.68,7.68,17.92,11.947,26.453,11.947
			c5.973,0,11.947-1.707,15.36-5.973c1.707-1.707,3.413-5.12,4.267-7.68l7.68,7.68c1.707,1.707,4.267,2.56,5.973,2.56
			c2.56,0,4.267-0.853,5.973-2.56c3.413-3.413,3.413-8.533,0-11.947L413.013,461.331z M384,469.011
			c-2.56,2.56-11.093,1.707-17.92-5.973c-3.413-3.413-5.973-7.68-6.827-11.947c-0.853-2.56,0-5.12,0.853-5.973
			s1.707-0.853,3.413-0.853c3.413,0,9.387,1.707,14.507,6.827C385.707,457.918,386.56,466.451,384,469.011z M407.893,444.265
			c-2.56,2.56-11.093,1.707-17.92-5.973c-6.827-6.827-8.533-15.36-5.973-17.92c0.853-0.853,1.707-0.853,3.413-0.853
			c0.853,0,1.707,0,2.56,0c4.267,0.853,8.533,3.413,11.947,6.827C409.6,434.025,410.453,441.705,407.893,444.265z"/>
	</g>
</g>
<g>
	<g>
		<path d="M247.467,179.731H8.533c-5.12,0-8.533,3.413-8.533,8.533v51.2c0,5.12,3.413,8.533,8.533,8.533h8.533v170.667
			c0,5.12,3.413,8.533,8.533,8.533h8.533v42.667c0,5.12,3.413,8.533,8.533,8.533H76.8c5.12,0,8.533-3.413,8.533-8.533v-42.667
			h85.333v42.667c0,5.12,3.413,8.533,8.533,8.533h34.133c5.12,0,8.533-3.413,8.533-8.533v-42.667h8.533
			c5.12,0,8.533-3.413,8.533-8.533V247.998h8.533c5.12,0,8.533-3.413,8.533-8.533v-51.2
			C256,183.145,252.587,179.731,247.467,179.731z M68.267,461.331H51.2v-34.133h17.067V461.331z M179.2,316.265
			c0,5.12-3.413,8.533-8.533,8.533H85.333c-5.12,0-8.533-3.413-8.533-8.533v-34.133c0-5.12,3.413-8.533,8.533-8.533h85.333
			c5.12,0,8.533,3.413,8.533,8.533V316.265z M204.8,461.331h-17.067v-34.133H204.8V461.331z M238.933,230.931H230.4H25.6h-8.533
			v-34.133h221.867V230.931z"/>
	</g>
</g>
<g>
	<g>
		<path d="M503.467,68.798H281.6c-5.12,0-8.533,3.413-8.533,8.533v42.667c0,5.12,3.413,8.533,8.533,8.533h8.533v170.667
			c0,5.12,3.413,8.533,8.533,8.533h8.533v42.667c0,5.12,3.413,8.533,8.533,8.533h34.133c5.12,0,8.533-3.413,8.533-8.533v-42.667
			h68.267v42.667c0,5.12,3.413,8.533,8.533,8.533h34.133c5.12,0,8.533-3.413,8.533-8.533v-42.667h8.533
			c5.12,0,8.533-3.413,8.533-8.533V128.531h8.533c5.12,0,8.533-3.413,8.533-8.533V77.331C512,72.211,508.587,68.798,503.467,68.798z
			 M341.333,341.865h-17.067v-34.133h17.067V341.865z M435.2,205.331h-85.333c-5.12,0-8.533-3.413-8.533-8.533v-34.133
			c0-5.12,3.413-8.533,8.533-8.533H435.2c5.12,0,8.533,3.413,8.533,8.533v34.133C443.733,201.918,440.32,205.331,435.2,205.331z
			 M460.8,341.865h-17.067v-34.133H460.8V341.865z M494.933,111.465H486.4H298.667h-8.533v-25.6h204.8V111.465z"/>
	</g>
</g>
<g>
</g>
<g>
</g>
<g>
</g>
<g>
</g>
<g>
</g>
<g>
</g>
<g>
</g>
<g>
</g>
<g>
</g>
<g>
</g>
<g>
</g>
<g>
</g>
<g>
</g>
<g>
</g>
<g>
</g>
</svg>
